# xmcd
# 
# Track frame offsets:
#     150
#     13714
#     24883
#     38642
#     51387
#     68894
#     80553
#     95291
#     108844
#     121109
#     134592
# 
# Disc length: 2024
# 
# Revision: 4
# Processed by: cddbd v1.5.2PL0 Copyright (c) Steve Scherf et al.
# Submitted via: fre:ac v1.0.31
# 
DISCID=8607e60b
DTITLE=Willie Nelson - Last Man Standing
DYEAR=2018
DGENRE=Country
TTITLE0=Last Man Standing
TTITLE1=Don't Tell Noah
TTITLE2=Bad Breath
TTITLE3=Me And You
TTITLE4=Something You Get Through
TTITLE5=Ready To Roar
TTITLE6=Heaven Is Closed
TTITLE7=I Ain't Got Nothin'
TTITLE8=She Made My Day
TTITLE9=I'll Try To Do Better Next Time
TTITLE10=Very Far To Crawl
EXTD=Release-Date: 27.04.2018\n\nMARO\n
EXTT0=
EXTT1=
EXTT2=
EXTT3=
EXTT4=
EXTT5=
EXTT6=
EXTT7=
EXTT8=
EXTT9=
EXTT10=
PLAYORDER=
